# xmcd
#
# Track frame offsets:
#	150
#	11365
#	22959
#	33746
#	46121
#	55750
#	67421
#	77113
#	89631
#	101402
#	115466
#	123800
#	137062
#	145692
#	157849
#	171996
#	179448
#	192715
#	207903
#	218394
#	230577
#	243120
#	256032
#	264604
#	276143
#	286689
#	299568
#	309799
#	320853
#	333409
#	343378
#
# Disc length: 4678 seconds
#
# Revision: 0
# Processed by: cddbd v1.4PL0 Copyright (c) Steve Scherf et al.
# Submitted via: EasyCDDAExtractor 4.6.9.1
#
DISCID=cd12441f
DTITLE=Orion - Who Was That Masked Man? Disc 4
DYEAR=1900
DGENRE=Country
TTITLE0=Be bop a lula
TTITLE1=On my knees
TTITLE2=Dixie fried
TTITLE3=Gentle as a lamb
TTITLE4=Money
TTITLE5=Breakup
TTITLE6=Matchbox
TTITLE7=Good rockin' tonight
TTITLE8=Gone gone gone
TTITLE9=Sittin' and thinkin'
TTITLE10=Save the last dance for me
TTITLE11=Sweet little sixteen
TTITLE12=I love you because
TTITLE13=C.C rider
TTITLE14=Cold cold heart
TTITLE15=Hello Josephine
TTITLE16=It won't happen with me
TTITLE17=What'd I say
TTITLE18=Good golly Miss Molly
TTITLE19=Rockin' the boat of love
TTITLE20=True love
TTITLE21=Put your cat clothes on
TTITLE22=Country boy
TTITLE23=Caught in the middle
TTITLE24=When my blue moon turns to gold again
TTITLE25=Honey don't
TTITLE26=Get rhythm
TTITLE27=Who will the next fool be
TTITLE28=Lonely street
TTITLE29=Ballad of a teenage queen
TTITLE30=Glad all over
EXTD=
EXTT0=
EXTT1=
EXTT2=
EXTT3=
EXTT4=
EXTT5=
EXTT6=
EXTT7=
EXTT8=
EXTT9=
EXTT10=
EXTT11=
EXTT12=
EXTT13=
EXTT14=
EXTT15=
EXTT16=
EXTT17=
EXTT18=
EXTT19=
EXTT20=
EXTT21=
EXTT22=
EXTT23=
EXTT24=
EXTT25=
EXTT26=
EXTT27=
EXTT28=
EXTT29=
EXTT30=
PLAYORDER=
